<svg width="184" height="76" viewBox="0 0 184 76" fill="none" xmlns="http://www.w3.org/2000/svg">
<circle cx="91.5" cy="38.5" r="34.5" fill="#F0F0F5"/>
<path d="M77.0028 28.3018C76.3682 28.9364 75.3393 28.9364 74.7047 28.3018L70.2625 23.8597C69.6222 23.2193 68.5865 23.4991 68.5549 24.4041C68.546 24.659 68.5442 24.9222 68.5442 25.1989C68.5442 30.1997 72.5981 34.2536 77.5989 34.2536C78.8576 34.2536 80.0564 33.9968 81.1455 33.5327L101.079 53.0862C100.94 53.6219 100.866 54.1837 100.866 54.7627C100.866 58.4501 103.856 61.4394 107.543 61.4394C111.231 61.4394 114.22 58.4501 114.22 54.7627C114.22 51.0752 111.231 48.0859 107.543 48.0859C106.988 48.0859 106.449 48.1537 105.933 48.2814L85.9578 28.686C86.4061 27.6127 86.6536 26.4347 86.6536 25.1989C86.6536 20.1981 82.5997 16.1442 77.5989 16.1442C77.3601 16.1442 77.1313 16.1456 76.909 16.1519C75.9982 16.1779 75.7106 17.2157 76.3549 17.8599L80.7507 22.2557C81.3853 22.8903 81.3853 23.9192 80.7507 24.5538L77.0028 28.3018Z" stroke="black" stroke-width="1.8" stroke-miterlimit="10" stroke-linecap="round" stroke-linejoin="round"/>
<path d="M105.383 52.6015L108.438 51.7831L110.674 54.019L109.855 57.0733L106.801 57.8918L104.565 55.6558L105.383 52.6015Z" stroke="black" stroke-width="1.8" stroke-miterlimit="10" stroke-linecap="round" stroke-linejoin="round"/>
<path d="M85.244 41.9774C84.5429 41.2763 83.4063 41.2763 82.7053 41.9774C82.2492 42.4334 82.2166 42.9532 82.2271 43.6586C82.2376 44.364 81.3598 45.1264 80.6186 45.2671C79.7262 45.4032 78.8678 45.8148 78.1806 46.5021L70.2105 54.4722C68.4967 56.1859 68.4967 58.9645 70.2105 60.6783C71.9242 62.3921 74.7028 62.3921 76.4166 60.6783L84.3867 52.7082C85.1054 51.9895 85.5227 51.0835 85.6386 50.1473C85.7222 49.4229 86.3927 48.7719 87.06 48.7259C87.7273 48.68 88.4334 48.6615 88.9114 48.1835C89.6125 47.4825 89.6125 46.3459 88.9114 45.6448L85.244 41.9774Z" stroke="black" stroke-width="1.8" stroke-miterlimit="10" stroke-linecap="round" stroke-linejoin="round"/>
<path d="M86.1445 42.8774L88.3402 40.6817M88.0337 44.7666L90.3013 42.499M95.0473 37.753L107.055 25.7452L107.06 25.7504L111.474 23.2367L113.988 18.8228L112.088 16.9227L107.674 19.4364L105.16 23.8503L105.166 23.856L93.3019 35.72" stroke="black" stroke-width="1.8" stroke-miterlimit="10" stroke-linecap="round" stroke-linejoin="round"/>
<rect x="78.6641" y="46.3247" width="2.45778" height="12.4923" rx="1.22889" transform="rotate(45 78.6641 46.3247)" stroke="black" stroke-width="1.8" stroke-miterlimit="10" stroke-linecap="round" stroke-linejoin="round"/>
<rect x="82.0498" y="49.71" width="3.55003" height="12.4923" rx="1.77501" transform="rotate(45 82.0498 49.71)" stroke="black" stroke-width="1.8" stroke-miterlimit="10" stroke-linecap="round" stroke-linejoin="round"/>
<path d="M85.6396 42.4995L84.4983 43.6409" stroke="black" stroke-width="1.8" stroke-miterlimit="10" stroke-linecap="round" stroke-linejoin="round"/>
<path d="M87.0254 43.8853L85.884 45.0267" stroke="black" stroke-width="1.8" stroke-miterlimit="10" stroke-linecap="round" stroke-linejoin="round"/>
<path d="M88.4111 45.271L87.2697 46.4124" stroke="black" stroke-width="1.8" stroke-miterlimit="10" stroke-linecap="round" stroke-linejoin="round"/>
<path d="M87.8369 41.5757L89.4693 43.1818" stroke="black" stroke-width="1.8" stroke-miterlimit="10" stroke-linecap="round" stroke-linejoin="round"/>
<path d="M87.2686 42.0347L88.9009 43.6408" stroke="black" stroke-width="1.8" stroke-miterlimit="10" stroke-linecap="round" stroke-linejoin="round"/>
</svg>
