<svg width="184" height="76" viewBox="0 0 184 76" fill="none" xmlns="http://www.w3.org/2000/svg">
<circle cx="93.5" cy="38.5" r="34.5" fill="#F0F0F5"/>
<path d="M100.654 52.9985C101.318 52.4526 102.436 52.2977 103.142 52.6861C104.313 53.3251 104.101 54.5811 103.958 55.6856C105.299 55.6985 106.632 55.7554 107.974 55.7869L107.988 55.7094C108.514 52.7502 108.979 50.1354 108.88 47.1068C108.746 43.1586 108.194 39.1886 107.778 35.2357C107.391 31.4941 107.369 27.6405 107.801 23.9005C107.838 23.5491 108.577 19.6848 108.577 19.6848C108.237 19.666 107.41 19.7183 107.018 19.7185C106.564 19.7192 105.758 19.7454 105.249 19.78C105.222 20.0869 105.158 20.3535 105.043 20.6391C104.862 21.0657 104.519 21.9077 103.902 22.261C103.322 22.5918 102.609 22.6246 102.038 22.4565C100.894 22.1351 100.655 20.7778 100.897 19.8333C100.601 19.8251 96.9656 19.7682 96.9585 19.7978C96.5786 21.3828 95.2982 23.0436 93.6143 22.7496C91.9304 22.4557 92.0553 20.1356 92.0721 19.5977C90.8267 19.5655 89.0458 19.5459 87.7862 19.5729C87.7565 19.5658 87.6856 19.5729 87.6856 19.5729C87.6688 19.6701 87.6759 19.6404 87.6688 19.6701C87.5877 20.0736 87.566 20.4913 87.4702 20.8912C87.2216 21.9281 86.3368 22.4836 85.2946 22.4531C84.5777 22.4379 84.0263 21.9924 83.7216 21.4338C83.4359 20.9267 83.5876 20.1642 83.6259 19.5469C83.6182 19.5137 83.6288 19.4692 83.6027 19.4473C83.5767 19.4254 83.5321 19.4147 83.5025 19.4076C81.9561 19.1936 80.4928 19.4076 78.9858 19.4076C78.5815 21.6203 78.596 23.2127 78.4722 25.2977C78.3496 27.5082 78.3823 29.7247 78.4777 31.9405C78.8271 39.7623 80.0707 47.5791 78.4614 55.3386C78.4472 55.3978 78.3952 55.6729 78.3952 55.6729C78.3952 55.6729 81.4096 55.7163 82.5732 55.6976C82.9042 52.8791 84.5045 52.1506 86.3384 52.6684C87.7319 53.081 87.5539 54.321 87.1449 55.4463C87.1449 55.4463 90.8588 55.4938 91.0024 55.4938C91.3935 54.1091 91.6191 53.0528 93.1272 52.51C93.6574 52.3238 94.92 52.6108 95.3076 52.9543C95.9962 53.533 95.8312 54.9879 95.8559 55.7643C97.0241 55.7609 98.1911 55.7354 99.3574 55.6637C99.662 54.731 99.8595 53.6573 100.654 52.9985Z" stroke="black" stroke-width="2" stroke-miterlimit="10" stroke-linecap="round" stroke-linejoin="round"/>
<path d="M96.8128 32.4225C95.7225 31.5878 95.2031 31.2988 94.1056 31.2379C92.5177 31.157 90.146 32.1186 90.1645 34.0213C90.244 35.9799 92.5194 36.3288 94.0094 36.5406C95.8499 36.7749 97.5658 37.5357 97.8736 39.4217C98.0483 40.4916 97.7162 41.8054 96.8129 42.554C94.8098 44.2463 91.6604 43.8865 90.4879 41.4295" stroke="black" stroke-width="2" stroke-miterlimit="10" stroke-linecap="round" stroke-linejoin="round"/>
<path d="M92.9961 28.8105C92.9961 28.8105 93.0178 29.505 93.0303 29.6489C93.053 30.0773 93.1364 30.7082 93.1277 31.3327" stroke="black" stroke-width="2" stroke-miterlimit="10" stroke-linecap="round" stroke-linejoin="round"/>
<path d="M94.2221 43.6249C94.2096 43.481 94.2324 43.9093 94.2484 44.0385C94.2609 44.1825 94.256 44.4632 94.272 44.5924C94.2799 45.0172 94.4086 45.7216 94.5131 46.5925" stroke="black" stroke-width="2" stroke-miterlimit="10" stroke-linecap="round" stroke-linejoin="round"/>
<path d="M78.375 28.9746C78.375 31.0391 79.4528 50.9191 78.375 55.5798" stroke="black" stroke-width="2" stroke-linecap="round" stroke-linejoin="round"/>
</svg>
