<svg width="184" height="76" viewBox="0 0 184 76" fill="none" xmlns="http://www.w3.org/2000/svg">
<circle cx="91.5" cy="38.5" r="34.5" fill="#F0F0F5"/>
<path d="M89.3652 19.1699H93.2833" stroke="black" stroke-width="2" stroke-miterlimit="10" stroke-linecap="round" stroke-linejoin="round"/>
<path d="M84.1087 56.0173C82.6162 55.3342 81.4906 53.6533 80.6622 52.8034C78.3677 49.7581 76.9053 45.4512 77.8713 40.354C78.1779 38.7835 78.9415 37.3149 79.7753 36.0033C85.2378 27.2815 98.2513 27.1752 104.05 36.0654C107.273 41.3365 107.25 47.0282 104.544 51.6107C103.333 53.7477 100.371 56.2663 98.3497 56.96C94.6165 58.7774 89.6393 59.2726 84.1087 56.0173Z" stroke="black" stroke-width="2" stroke-miterlimit="10" stroke-linecap="round" stroke-linejoin="round"/>
<path d="M82.3338 58.8032C80.4756 57.9839 79.0768 55.9621 78.0465 54.9405C75.1942 51.2782 73.3815 46.0951 74.5964 39.9554C74.982 38.0636 76.1131 35.5438 77.1549 33.9626C83.9808 23.4488 100.221 23.9343 107.428 34.6272C111.431 40.9677 111.189 47.9305 107.806 53.4541C106.293 56.03 102.597 59.069 100.076 59.9085C95.4207 62.1048 89.2179 62.7115 82.3338 58.8032Z" stroke="black" stroke-width="2" stroke-miterlimit="10" stroke-linecap="round" stroke-linejoin="round"/>
<path d="M87.7421 22.5215C87.0917 22.2887 86.607 21.703 86.2483 21.4082C85.2584 20.3484 84.6395 18.8408 85.0887 17.0433C85.231 16.4894 85.5731 15.969 85.9451 15.5036C88.3831 12.4089 94.0859 12.3071 96.5817 15.4053C97.9668 17.2434 97.9279 19.2454 96.7187 20.8706C96.1773 21.6282 94.8669 22.5287 93.9775 22.7827C92.3324 23.4404 90.149 23.6392 87.7421 22.5215Z" stroke="black" stroke-width="2" stroke-miterlimit="10" stroke-linecap="round" stroke-linejoin="round"/>
<path d="M91.8189 44.6974C91.6334 44.903 91.4339 44.5731 91.3869 44.4064C91.2312 43.9186 91.3718 42.9889 92.1512 43.0104C93.5149 43.221 92.8548 45.2996 91.8201 44.6839" stroke="black" stroke-width="2" stroke-miterlimit="10" stroke-linecap="round" stroke-linejoin="round"/>
<path d="M103.407 43.6892C102.994 43.6925 98.6639 43.9488 98.0866 44.0054C96.0949 44.0054 95.6454 44.1546 93.0371 44.0054" stroke="black" stroke-width="2" stroke-miterlimit="10" stroke-linecap="round" stroke-linejoin="round"/>
<path d="M91.5674 26.3814L91.2461 19.7983M89.4258 19.7983H93.3878" stroke="black" stroke-width="2" stroke-miterlimit="10" stroke-linecap="round" stroke-linejoin="round"/>
<path d="M104.63 30.8036L107.256 27.9652M105.846 26.3813L108.915 29.8286" stroke="black" stroke-width="2" stroke-miterlimit="10" stroke-linecap="round" stroke-linejoin="round"/>
<path d="M86.4945 60.6032C94.7763 65.155 108.432 59.8445 109.886 48.5913" stroke="black" stroke-width="2" stroke-miterlimit="10" stroke-linecap="round" stroke-linejoin="round"/>
</svg>
