<svg width="184" height="76" viewBox="0 0 184 76" fill="none" xmlns="http://www.w3.org/2000/svg">
<circle cx="92.5" cy="38.5" r="34.5" fill="#F0F0F5"/>
<path d="M87.7031 39.115C89.1714 40.5692 90.1174 41.4022 91.8419 42.9542C95.1615 38.9925 95.9807 38.094 100.033 33.1929" stroke="black" stroke-width="2" stroke-linecap="round" stroke-linejoin="round"/>
<path d="M87.7031 39.115C89.5013 40.6423 89.8866 40.9848 91.6847 42.1836C95.3238 38.2876 95.5807 37.9879 100.033 33.1929" stroke="black" stroke-width="2" stroke-linecap="round" stroke-linejoin="round"/>
<path d="M76.6341 43.657C77.7716 46.9883 79.9653 49.507 82.5653 51.7008C83.5403 52.5133 92.3966 59.1758 93.5341 58.5258C101.497 54.2195 108.565 48.1258 109.378 41.6258C110.04 36.4022 110.169 30.9122 110.188 25.6383C110.191 24.7336 109.45 24.0096 108.549 23.9309C103.598 23.4984 98.5396 20.9516 94.7883 17.9017C93.814 17.1096 92.4072 17.0721 91.4189 17.8467C89.3106 19.4991 87.5137 20.5694 85.1887 21.7964C82.2696 23.3371 80.3991 23.3381 77.2288 23.8554C76.4956 23.9751 75.9516 24.5944 75.9196 25.3366C75.756 29.1291 75.8216 33.457 75.8216 36.6695C75.8216 38.7008 75.8216 40.8133 76.3903 42.7633C76.4716 43.0883 76.5528 43.4133 76.6341 43.657Z" stroke="black" stroke-width="2" stroke-miterlimit="10" stroke-linecap="round" stroke-linejoin="round"/>
<path d="M93.2676 58.6636C97.3301 57.2011 102.76 53.206 105.523 49.956C108.366 46.5435 109.178 44.3659 109.715 38.7759" stroke="black" stroke-width="2" stroke-miterlimit="10" stroke-linecap="round" stroke-linejoin="round"/>
<path d="M93.046 22.0078C96.0465 24.2802 100.863 26.9599 105.802 27.7766C106.23 33.0477 106.716 40.7858 103.446 45.2453C100.806 48.94 97.4139 51.7682 93.7478 53.978C93.7478 53.978 93.2656 54.2178 93.0015 54.1016C93.0015 54.1016 92.7967 54.0326 92.6752 53.978C90.6184 53.0531 85.0634 48.4229 83.8072 47.376C79.4783 43.2816 80.046 38.8266 80.046 33.9516C80.046 32.8953 80.046 30.1328 80.046 28.0203C84.4314 27.4646 89.2899 25.1017 93.046 22.0078Z" stroke="black" stroke-width="1.5" stroke-miterlimit="10" stroke-linecap="round" stroke-linejoin="round"/>
<path d="M77.041 44.6768C78.666 49.7143 88.741 56.9456 93.0473 58.5706" stroke="black" stroke-width="2" stroke-linecap="round" stroke-linejoin="round"/>
</svg>
