<svg width="184" height="76" viewBox="0 0 184 76" fill="none" xmlns="http://www.w3.org/2000/svg">
<circle cx="92.5" cy="38.5" r="34.5" fill="#F0F0F5"/>
<path d="M101.165 42.394C100.679 43.6632 98.5996 45.6884 97.4922 46.1475" stroke="black" stroke-width="1.7" stroke-miterlimit="10" stroke-linecap="round" stroke-linejoin="round"/>
<path d="M95.8848 40.7422L99.2266 43.8628" stroke="black" stroke-width="1.7" stroke-miterlimit="10" stroke-linecap="round" stroke-linejoin="round"/>
<path d="M96.666 40.3496L100.008 43.4702" stroke="black" stroke-width="1.7" stroke-miterlimit="10" stroke-linecap="round" stroke-linejoin="round"/>
<path d="M95.4062 41.3442L98.6055 44.7031" stroke="black" stroke-width="1.7" stroke-miterlimit="10" stroke-linecap="round" stroke-linejoin="round"/>
<circle cx="85.7891" cy="30.4844" r="14.2188" stroke="black" stroke-width="1.7" stroke-miterlimit="10" stroke-linecap="round" stroke-linejoin="round"/>
<ellipse cx="86.043" cy="30.6875" rx="14.4727" ry="14.4219" stroke="black" stroke-width="1.7" stroke-miterlimit="10" stroke-linecap="round" stroke-linejoin="round"/>
<circle cx="85.7891" cy="30.4844" r="11.1719" stroke="black" stroke-width="1.7" stroke-miterlimit="10" stroke-linecap="round" stroke-linejoin="round"/>
<ellipse cx="85.5352" cy="30.8398" rx="10.918" ry="10.8164" stroke="black" stroke-width="1.7" stroke-miterlimit="10" stroke-linecap="round" stroke-linejoin="round"/>
<path d="M79.229 36.0273C77.1687 33.8548 76.8368 30.6144 78.1088 27.7944" stroke="black" stroke-width="1.7" stroke-miterlimit="10" stroke-linecap="round" stroke-linejoin="round"/>
<path d="M79.3438 25.6583C79.6171 25.2936 79.7815 25.0812 80.2021 24.7612" stroke="black" stroke-width="1.7" stroke-miterlimit="10" stroke-linecap="round" stroke-linejoin="round"/>
<path d="M97.7669 46.8435C97.3231 46.3815 97.0859 45.744 97.4104 45.1916C97.9201 44.3241 98.9329 43.266 99.9118 42.5747C100.615 42.0784 101.523 42.2777 102.163 42.8533L114.531 53.9857C114.705 54.142 114.877 54.3208 114.901 54.5533C115.038 55.9332 112.289 58.6941 110.606 59.311C110.132 59.4846 109.661 59.2252 109.312 58.8615L97.7669 46.8435Z" stroke="black" stroke-width="1.7" stroke-miterlimit="10" stroke-linecap="round" stroke-linejoin="round"/>
</svg>
