<svg width="64" height="64" viewBox="0 0 64 64" fill="none" xmlns="http://www.w3.org/2000/svg">
<path d="M45.9818 38.8878C46.0145 40.7415 46.0316 42.3855 46.0378 44.0124C46.05 47.2394 45.9874 49.2153 45.9539 53.8106C32.07 55.1059 24.2717 55.2056 10.3407 54.7809C9.5587 39.7706 9.32687 33.2124 9.14258 10.806C22.8919 9.66753 30.7197 9.58392 44.7557 9.83556C45.0001 13.9854 45.0585 16.7081 45.2295 20.2135" stroke="#0C0E11" stroke-width="2" stroke-miterlimit="10" stroke-linecap="round" stroke-linejoin="round"/>
<path d="M14.48 9.61758C14.8043 6.4102 17.6805 5.31903 19.3861 6.41026C21.6375 7.82488 21.4766 10.5254 20.6722 12.455C20.3659 13.0923 19.9194 13.5988 19.3861 13.9174" stroke="#0C0E11" stroke-width="2" stroke-miterlimit="10" stroke-linecap="round" stroke-linejoin="round"/>
<path d="M24.5977 9.61758C24.922 6.4102 27.7982 5.31903 29.5038 6.41026C31.7552 7.82488 31.5943 10.5254 30.7899 12.455C30.4836 13.0923 30.0371 13.5988 29.5038 13.9174" stroke="#0C0E11" stroke-width="2" stroke-miterlimit="10" stroke-linecap="round" stroke-linejoin="round"/>
<path d="M33.9771 9.61758C34.3014 6.4102 37.1776 5.31903 38.8832 6.41026C41.1346 7.82488 40.9737 10.5254 40.1693 12.455C39.863 13.0923 39.4165 13.5988 38.8832 13.9174" stroke="#0C0E11" stroke-width="2" stroke-miterlimit="10" stroke-linecap="round" stroke-linejoin="round"/>
<path d="M42.06 57.813C27.7854 58.7435 19.604 58.1514 5.32762 57.3594C4.93145 42.3176 4.91126 35.4543 5.32821 13.0268C6.91671 12.8239 7.55366 12.8564 8.96168 12.6289" stroke="#0C0E11" stroke-width="2" stroke-miterlimit="10" stroke-linecap="round" stroke-linejoin="round"/>
<path d="M9.29064 54.3026L8.3418 13.2422" stroke="#0C0E11" stroke-width="2" stroke-miterlimit="10" stroke-linecap="round" stroke-linejoin="round"/>
<path d="M58.1638 16.0973L56.2644 14.765C54.961 13.8508 53.1634 14.1664 52.2493 15.4697C45.383 25.9919 41.9851 30.9721 36.6087 38.5201C36.1522 41.6369 35.7014 44.0048 34.8701 48.3251C37.968 46.2656 39.6677 45.1007 43.2278 43.1625C48.698 34.2524 52.117 29.207 58.8685 20.1122C59.7826 18.8089 59.4671 17.0114 58.1638 16.0973Z" stroke="#0C0E11" stroke-width="2" stroke-miterlimit="10" stroke-linecap="round" stroke-linejoin="round"/>
<path d="M36.6431 38.5508C38.9269 41.0989 40.3975 42.0914 43.3536 43.175" stroke="#0C0E11" stroke-width="1.5" stroke-linecap="round" stroke-linejoin="round"/>
<path d="M56.6681 23.026C54.269 22.1566 51.244 19.8618 50.1662 18.6797L47.6006 22.4666C49.8881 24.6604 51.1676 25.3358 53.8685 26.7292L56.6681 23.026Z" stroke="#0C0E11" stroke-width="1.5" stroke-linecap="round" stroke-linejoin="round"/>
<path d="M39.395 40.8652L50.5474 24.793" stroke="#0C0E11" stroke-width="1.5" stroke-linecap="round" stroke-linejoin="round"/>
<path d="M35.8333 47.0469L34.3955 49.2325" stroke="#0C0E11" stroke-width="2" stroke-linecap="round" stroke-linejoin="round"/>
<path d="M35.7163 45.4219C36.1585 46.0468 36.5279 46.2515 37.3358 46.4379" stroke="#0C0E11" stroke-width="1.5" stroke-linecap="round" stroke-linejoin="round"/>
<path d="M19.1662 13.8363C19.0586 14.0295 18.8277 14.1263 18.6504 14.0524C18.4731 13.9786 18.4167 13.7621 18.5243 13.569C18.6319 13.3758 18.8628 13.279 19.0401 13.3529C19.1201 13.3862 19.1755 13.4486 19.2023 13.5247" stroke="#0C0E11" stroke-width="2" stroke-miterlimit="10" stroke-linecap="round" stroke-linejoin="round"/>
<path d="M29.3469 13.8363C29.2393 14.0295 29.0084 14.1263 28.8311 14.0524C28.6538 13.9786 28.5973 13.7621 28.7049 13.569C28.8125 13.3758 29.0435 13.279 29.2208 13.3529C29.3008 13.3862 29.3562 13.4486 29.383 13.5247" stroke="#0C0E11" stroke-width="2" stroke-miterlimit="10" stroke-linecap="round" stroke-linejoin="round"/>
<path d="M38.9177 13.8363C38.8101 14.0295 38.5791 14.1263 38.4019 14.0524C38.2246 13.9786 38.1681 13.7621 38.2757 13.569C38.3833 13.3758 38.6143 13.279 38.7915 13.3529C38.8716 13.3862 38.927 13.4486 38.9538 13.5247" stroke="#0C0E11" stroke-width="2" stroke-miterlimit="10" stroke-linecap="round" stroke-linejoin="round"/>
<path d="M14.9045 22.9826C20.514 22.7109 21.1329 22.7111 28.5239 22.711C35.9148 22.7109 36.1612 22.711 39.8847 22.711M15.0421 41.7774C17.96 41.7774 19.3033 41.7768 21.5456 41.7774C22.7938 41.7777 24.8704 41.4897 28.8253 41.7774M35.4381 27.7717C33.1564 27.7722 30.3841 27.8595 27.5866 27.8564C25.4158 27.8569 23.2574 27.7711 21.1065 27.7717C18.9224 27.7722 17.1418 28.1628 14.9045 27.8595M30.6758 47.1305C27.5346 46.7043 24.418 46.6446 21.2441 46.6453C19.1772 46.6459 17.1101 46.7308 15.0421 46.7332M33.9856 32.668C31.704 32.6686 30.2203 32.7559 27.4228 32.7528C25.252 32.7533 23.0936 32.6675 20.9427 32.668C18.7586 32.6686 16.978 33.0592 14.7407 32.7559" stroke="#0C0E11" stroke-width="1.5" stroke-miterlimit="10" stroke-linecap="round" stroke-linejoin="round"/>
</svg>
