<svg width="64" height="64" viewBox="0 0 64 64" fill="none" xmlns="http://www.w3.org/2000/svg">
<g clip-path="url(#clip0_484_115807)">
<path d="M27.8 26.5C29.1 30.3 34.3 31.7 37.1 28.9C39.7 26.3 39.7 21.6 38.8 18.3C38.1 15.6 35.9 13.9 33.2 13.9C27 14.1 26.3 22.1 27.8 26.5Z" stroke="black" stroke-width="2" stroke-linecap="round" stroke-linejoin="round"/>
<path d="M25.2 43.6C25.3 46.2 25.4 47.6 25.4 48.2" stroke="black" stroke-width="1.5" stroke-linecap="round" stroke-linejoin="round"/>
<path d="M41.6 43.4C41.6 45.9 41.5 47.2 41.4 48.3" stroke="black" stroke-width="1.5" stroke-linecap="round" stroke-linejoin="round"/>
<path d="M31.3 30.6C32.8 31.8 34.5001 32.4 36.2001 32.5" stroke="black" stroke-width="2" stroke-linecap="round" stroke-linejoin="round"/>
<path d="M10.8 26.6C10.6 29 11.3 31.8 13.2 33.4C15.2 35.1 18 35.1 20 33.4C21.6 32 22.1 29.5 22.1 27.3C22 24 21.2 21.1 17.6 20.5C13.2 19.7 11.1 23.5 10.8 26.6Z" stroke="black" stroke-width="2" stroke-linecap="round" stroke-linejoin="round"/>
<path d="M14.1001 34.6C14.1001 35.4 14.5001 35.6 13.7001 35.9C11.1001 36.9 9.20005 38.2 8.50005 38.9C7.40005 40 6.50005 40.9 5.90005 42.3C4.30005 46 5.20005 46 6.90005 46C11.7001 46.1 14.5001 46.2 18.3001 46.1" stroke="black" stroke-width="2" stroke-linecap="round" stroke-linejoin="round"/>
<path d="M14.5 34.6C15.7 35.4 17.6 35.8 18.9 35.3" stroke="black" stroke-width="2" stroke-linecap="round" stroke-linejoin="round"/>
<path d="M55.3 26.6C55.6 34.2 49.1 37.3 45.6 32.3C44.8 31.2 44.4 29.6 44.2 28.2C43.8 25.4 45 21 48.6 20.4C53 19.7 55.2 23.4 55.3 26.6Z" stroke="black" stroke-width="2" stroke-linecap="round" stroke-linejoin="round"/>
<path d="M52.5 34.6C52.5 35.4 51.8 35.6 52.6 35.9C55.2 36.9 56.4 37.2 58.1 38.5C59.4 39.4 60.9 41.7 61.3 43.7C61.8 46.1 62 46.1 58.8 46.1C54.6 46.1 51.9 46.3 48 46.2" stroke="black" stroke-width="2" stroke-linecap="round" stroke-linejoin="round"/>
<path d="M47.2999 34.2C48.4999 35 51.2999 36.2 52.5999 35.7" stroke="black" stroke-width="2" stroke-linecap="round" stroke-linejoin="round"/>
<path d="M36.1 30.1C36 31.2 36.2 31.9 36.5 32.7C36.6 33.2 38 33.0999 40.2 34.2999C47 38.0999 47.2 39.4 47.9 47.4V48.2999C39.6 48.8999 27.4 48.2999 19.1 48.2999C19.2 46.0999 19.3 44.6999 19.6 42.9C19.9 40.8 20.6 39.2 22.3 37.2C23.8 35.5 26 34.1 29.2 32.7L30 32.5C30.3 31.9 30.3 30.6 30.3 29.7" stroke="black" stroke-width="2" stroke-linecap="round" stroke-linejoin="round"/>
<path d="M47.4 35.4C46.2 35.6 45.3 36.1 44.2 36.8" stroke="black" stroke-width="2" stroke-linecap="round" stroke-linejoin="round"/>
<path d="M18.9 35.4C19.9 35.7 21.3 36.3 22.3 37" stroke="black" stroke-width="2" stroke-linecap="round" stroke-linejoin="round"/>
<path d="M35.2 26.6C34 27.4 32.8 27.2 31.9 26.6" stroke="black" stroke-width="1.5" stroke-linecap="round" stroke-linejoin="round"/>
<path d="M36.4001 32.7L35.2001 31H32.3" stroke="black" stroke-width="2" stroke-linecap="round" stroke-linejoin="round"/>
<path d="M26.9 21.1C26.6 21.1 26.3999 21.3 26.2999 21.5C26.1999 21.7 26.2 22 26.2 22.3C26.3 23.2 26.5 24 26.9 24.8" stroke="black" stroke-width="2" stroke-linecap="round" stroke-linejoin="round"/>
<path d="M39.5 21.0999C39.8 20.9999 40 21.2999 40 21.4999C40.3 22.4999 40.1 23.6999 39.6 24.5999" stroke="black" stroke-width="2" stroke-linecap="round" stroke-linejoin="round"/>
<path d="M31.8 17C33.3 18.3 35.8001 19.5 38.4001 19.2" stroke="black" stroke-width="1.5" stroke-linecap="round" stroke-linejoin="round"/>
<path d="M15.5 23.2C16.9 24.6 19 25.3 21 25" stroke="black" stroke-width="1.5" stroke-linecap="round" stroke-linejoin="round"/>
<path d="M48.4 23.1C50 24.5 52.3 25.2 54.4 25" stroke="black" stroke-width="1.5" stroke-linecap="round" stroke-linejoin="round"/>
<path d="M43.8 26.6C43.5 26.6 43.3 26.8 43.2 27C43.1 27.2 43.1 27.5 43.1 27.8C43.2 28.7 43.4 29.5 43.8 30.3" stroke="black" stroke-width="2" stroke-linecap="round" stroke-linejoin="round"/>
<path d="M55.7 26.8C55.9 26.7 56.1 27 56.2 27.2C56.5 28.2 56.1 30.3 55.4 30.4" stroke="black" stroke-width="2" stroke-linecap="round" stroke-linejoin="round"/>
<path d="M10.4 26.6C10.1 26.6 9.89995 26.8 9.79995 27C9.69995 27.2 9.69995 27.5 9.69995 27.8C9.79995 28.7 9.99995 29.5 10.4 30.3" stroke="black" stroke-width="2" stroke-linecap="round" stroke-linejoin="round"/>
<path d="M22.4 26.4C22.6 26.3 22.8 26.6 22.9 26.8C23.2 27.8 22.8 29.9 22.1 30" stroke="black" stroke-width="2" stroke-linecap="round" stroke-linejoin="round"/>
<path d="M27.8 34C28.3 35.1 29.4 35.7 30.5 36.1C32.3 36.7 34.3001 36.7 36.2001 36.1C37.4001 35.7 38.6 34.9 39.1 33.7" stroke="black" stroke-width="1.5" stroke-linecap="round" stroke-linejoin="round"/>
</g>
<defs>
<clipPath id="clip0_484_115807">
<rect width="58.6" height="36.6" fill="white" transform="translate(4 13)"/>
</clipPath>
</defs>
</svg>
