<svg width="64" height="64" viewBox="0 0 64 64" fill="none" xmlns="http://www.w3.org/2000/svg">
<path d="M25.4811 33.3721C27.2883 35.1619 28.4526 36.187 30.575 38.0972C34.6607 33.2213 35.6689 32.1154 40.6567 26.0833" stroke="black" stroke-width="2" stroke-linecap="round" stroke-linejoin="round"/>
<path d="M25.4811 33.3721C27.6942 35.2518 28.1685 35.6733 30.3816 37.1487C34.8605 32.3537 35.1766 31.9848 40.6567 26.0833" stroke="black" stroke-width="2" stroke-linecap="round" stroke-linejoin="round"/>
<path d="M11.858 38.9626C13.258 43.0626 15.958 46.1626 19.158 48.8626C20.358 49.8626 31.258 58.0626 32.658 57.2626C42.458 51.9626 51.158 44.4626 52.158 36.4626C52.973 30.0336 53.132 23.2767 53.1547 16.7857C53.1587 15.6722 52.2467 14.7811 51.1374 14.6842C45.0442 14.152 38.8186 11.0174 34.2017 7.26371C33.0025 6.28877 31.271 6.24262 30.0546 7.19597C27.4598 9.2297 25.2483 10.547 22.3868 12.0573C18.794 13.9534 16.4918 13.9547 12.59 14.5914C11.6876 14.7386 11.018 15.5009 10.9786 16.4144C10.7773 21.0821 10.858 26.4087 10.858 30.3626C10.858 32.8626 10.858 35.4626 11.558 37.8626C11.658 38.2626 11.758 38.6626 11.858 38.9626Z" stroke="black" stroke-width="2" stroke-miterlimit="10" stroke-linecap="round" stroke-linejoin="round"/>
<path d="M32.3304 57.4321C37.3304 55.6321 44.0136 50.715 47.4136 46.715C50.9136 42.515 51.9121 39.8349 52.5737 32.9548" stroke="black" stroke-width="2" stroke-miterlimit="10" stroke-linecap="round" stroke-linejoin="round"/>
<path d="M32.058 12.3174C35.7509 15.1141 41.6791 18.4123 47.758 19.4174C48.284 25.905 48.883 35.4287 44.858 40.9174C41.6087 45.4646 37.4339 48.9455 32.9217 51.6653C32.9217 51.6653 32.3283 51.9605 32.0032 51.8174C32.0032 51.8174 31.7512 51.7325 31.6017 51.6653C29.0702 50.527 22.2333 44.8282 20.6871 43.5398C15.3593 38.5006 16.058 33.0174 16.058 27.0174C16.058 25.7174 16.058 22.3174 16.058 19.7174C21.4554 19.0334 27.4351 16.1252 32.058 12.3174Z" stroke="black" stroke-width="1.5" stroke-miterlimit="10" stroke-linecap="round" stroke-linejoin="round"/>
<path d="M12.358 40.2173C14.358 46.4173 26.758 55.3174 32.058 57.3174" stroke="black" stroke-width="2" stroke-linecap="round" stroke-linejoin="round"/>
</svg>
