<svg width="64" height="64" viewBox="0 0 64 64" fill="none" xmlns="http://www.w3.org/2000/svg">
<path d="M14.7723 18.833C13.9913 19.614 12.7249 19.614 11.9439 18.833L6.47665 13.3657C5.68855 12.5776 4.41386 12.9219 4.37496 14.0358C4.36401 14.3496 4.36181 14.6735 4.36181 15.014C4.36181 21.1688 9.35126 26.1583 15.5061 26.1583C17.0552 26.1583 18.5306 25.8422 19.8711 25.2709L44.4043 49.3369C44.2338 49.9962 44.1431 50.6876 44.1431 51.4002C44.1431 55.9386 47.8222 59.6177 52.3606 59.6177C56.899 59.6177 60.5781 55.9386 60.5781 51.4002C60.5781 46.8618 56.899 43.1827 52.3606 43.1827C51.6772 43.1827 51.0133 43.2661 50.3785 43.4233L25.7939 19.3059C26.3456 17.9849 26.6503 16.535 26.6503 15.014C26.6503 8.85921 21.6609 3.86975 15.5061 3.86975C15.2122 3.86975 14.9306 3.87149 14.6569 3.87928C13.536 3.91121 13.182 5.1885 13.9749 5.98145L19.3851 11.3916C20.1662 12.1727 20.1662 13.439 19.3851 14.2201L14.7723 18.833Z" stroke="black" stroke-width="2" stroke-miterlimit="10" stroke-linecap="round" stroke-linejoin="round"/>
<path d="M49.7022 48.7405L53.4614 47.7332L56.2134 50.4852L55.2061 54.2444L51.4469 55.2516L48.695 52.4997L49.7022 48.7405Z" stroke="black" stroke-width="1.5" stroke-miterlimit="10" stroke-linecap="round" stroke-linejoin="round"/>
<path d="M24.9151 35.6641C24.0523 34.8013 22.6534 34.8013 21.7906 35.6641C21.2293 36.2254 21.1891 36.8651 21.2021 37.7333C21.215 38.6014 20.1346 39.5398 19.2224 39.713C18.1241 39.8805 17.0675 40.3871 16.2217 41.2329L6.41236 51.0423C4.30309 53.1516 4.30309 56.5714 6.41236 58.6806C8.52163 60.7899 11.9414 60.7899 14.0507 58.6806L23.8601 48.8713C24.7446 47.9867 25.2582 46.8717 25.4009 45.7194C25.5037 44.8278 26.329 44.0266 27.1503 43.97C27.9716 43.9135 28.8406 43.8907 29.4289 43.3024C30.2917 42.4396 30.2917 41.0407 29.4289 40.1779L24.9151 35.6641Z" stroke="black" stroke-width="2" stroke-miterlimit="10" stroke-linecap="round" stroke-linejoin="round"/>
<path d="M26.0233 36.7723L28.7257 34.0698M28.3484 39.0974L31.1393 36.3065M36.9806 30.4652L51.7594 15.6864L51.7659 15.6928L57.1983 12.599L60.2921 7.16662L57.9535 4.828L52.521 7.9218L49.4272 13.3542L49.4343 13.3612L34.8324 27.9631" stroke="black" stroke-width="1.5" stroke-miterlimit="10" stroke-linecap="round" stroke-linejoin="round"/>
<rect x="16.8163" y="41.0149" width="3.02495" height="15.3751" rx="1.51248" transform="rotate(45 16.8163 41.0149)" stroke="black" stroke-width="1.5" stroke-miterlimit="10" stroke-linecap="round" stroke-linejoin="round"/>
<rect x="20.9835" y="45.1814" width="4.36926" height="15.3751" rx="2.18463" transform="rotate(45 20.9835 45.1814)" stroke="black" stroke-width="1.5" stroke-miterlimit="10" stroke-linecap="round" stroke-linejoin="round"/>
<path d="M25.4018 36.3069L23.997 37.7117" stroke="black" stroke-width="1.5" stroke-miterlimit="10" stroke-linecap="round" stroke-linejoin="round"/>
<path d="M27.1072 38.0125L25.7024 39.4172" stroke="black" stroke-width="1.5" stroke-miterlimit="10" stroke-linecap="round" stroke-linejoin="round"/>
<path d="M28.8126 39.7183L27.4078 41.1231" stroke="black" stroke-width="1.5" stroke-miterlimit="10" stroke-linecap="round" stroke-linejoin="round"/>
<path d="M28.1064 35.1697L30.1155 37.1465" stroke="black" stroke-width="2" stroke-miterlimit="10" stroke-linecap="round" stroke-linejoin="round"/>
<path d="M27.4072 35.7349L29.4163 37.7117" stroke="black" stroke-width="2" stroke-miterlimit="10" stroke-linecap="round" stroke-linejoin="round"/>
</svg>
